<svg xmlns="http://www.w3.org/2000/svg" viewBox="0 0 64 64">
  <rect width="64" height="64" rx="14" fill="#151413" />
  <circle cx="32" cy="32" r="28" fill="none" stroke="#D4A346" stroke-width="2" stroke-dasharray="2 3" opacity="0.6"/>
  <!-- Chef Hat / Cloche Monogram Motif in Warm Gold -->
  <path d="M22 38h20v4a2 2 0 0 1-2 2H24a2 2 0 0 1-2-2v-4z" fill="#D4A346" />
  <path d="M20 36c-1.5-1-2.5-3-2.5-5.5a6.5 6.5 0 0 1 8-6.3A8 8 0 0 1 38.5 24a6.5 6.5 0 0 1 8 5.7c0 2.5-1 4.5-2.5 5.5H20z" fill="#FAF7F2" />
  <circle cx="32" cy="20" r="2.5" fill="#D4A346" />
</svg>
